<svg  viewBox="0 0 16 17" fill="none" xmlns="http://www.w3.org/2000/svg">
<rect fill="#F5F5F5"/>
<g id="Sales Details" clip-path="url(#clip0_0_1)">
<rect width="1440" height="1428" transform="translate(-1035 -376)" fill="#F9F9FC"/>
<g id="Main">
<g id="Body">
<g id="Row">
<g id="Full Width_Table Example" filter="url(#filter0_d_0_1)">
<g clip-path="url(#clip1_0_1)">
<g id="Header">
<rect width="1128" height="77" transform="translate(-747 -30)" fill="white"/>
<g id="dropdown">
<rect x="-7.5" y="-11" width="152" height="39" rx="7.5" fill="white"/>
<g id="bank-card-line" clip-path="url(#clip2_0_1)">
<path id="Vector 1" d="M2 14.8571V14.0714C2 11.9017 3.75888 10.1429 5.92857 10.1429H9.07143C11.2411 10.1429 13 11.9017 13 14.0714V14.8571M10.6429 4.64286C10.6429 6.37861 9.23575 7.78571 7.5 7.78571C5.76425 7.78571 4.35714 6.37861 4.35714 4.64286C4.35714 2.9071 5.76425 1.5 7.5 1.5C9.23575 1.5 10.6429 2.9071 10.6429 4.64286Z" stroke="#667085" stroke-width="2" stroke-linecap="round" stroke-linejoin="round"/>
</g>
<rect x="-7.5" y="-11" width="152" height="39" rx="7.5" stroke="#E0E2E7"/>
</g>
</g>
</g>
<rect x="-746.5" y="-29.5" width="1127" height="1054" rx="7.5" stroke="#E0E2E7" shape-rendering="crispEdges"/>
</g>
</g>
</g>
</g>
</g>
<defs>
<filter id="filter0_d_0_1" x="-749" y="-30.5" width="1132" height="1059" filterUnits="userSpaceOnUse" color-interpolation-filters="sRGB">
<feFlood flood-opacity="0" result="BackgroundImageFix"/>
<feColorMatrix in="SourceAlpha" type="matrix" values="0 0 0 0 0 0 0 0 0 0 0 0 0 0 0 0 0 0 127 0" result="hardAlpha"/>
<feOffset dy="1.5"/>
<feGaussianBlur stdDeviation="1"/>
<feComposite in2="hardAlpha" operator="out"/>
<feColorMatrix type="matrix" values="0 0 0 0 0.0627 0 0 0 0 0.0942333 0 0 0 0 0.1573 0 0 0 0.1 0"/>
<feBlend mode="normal" in2="BackgroundImageFix" result="effect1_dropShadow_0_1"/>
<feBlend mode="normal" in="SourceGraphic" in2="effect1_dropShadow_0_1" result="shape"/>
</filter>
<clipPath id="clip0_0_1">
<rect width="1440" height="1428" fill="white" transform="translate(-1035 -376)"/>
</clipPath>
<clipPath id="clip1_0_1">
<rect x="-747" y="-30" width="1128" height="1055" rx="8" fill="white"/>
</clipPath>
<clipPath id="clip2_0_1">
<rect width="16" height="16" fill="white" transform="translate(0 0.5)"/>
</clipPath>
</defs>
</svg>
