<svg width="76" height="76" viewBox="0 0 76 76" fill="none" xmlns="http://www.w3.org/2000/svg">
<path d="M56.0953 21.0358C57.0947 21.0358 57.9048 20.2256 57.9048 19.2263C57.9048 18.2269 57.0947 17.4167 56.0953 17.4167C55.0959 17.4167 54.2858 18.2269 54.2858 19.2263C54.2858 20.2256 55.0959 21.0358 56.0953 21.0358Z" fill="#2D4356"/>
<path d="M61.5238 35.9643C62.5231 35.9643 63.3333 35.1541 63.3333 34.1547C63.3333 33.1554 62.5231 32.3452 61.5238 32.3452C60.5244 32.3452 59.7142 33.1554 59.7142 34.1547C59.7142 35.1541 60.5244 35.9643 61.5238 35.9643Z" fill="#2D4356"/>
<path d="M56.0953 50.893C57.0947 50.893 57.9048 50.0828 57.9048 49.0834C57.9048 48.0841 57.0947 47.2739 56.0953 47.2739C55.0959 47.2739 54.2858 48.0841 54.2858 49.0834C54.2858 50.0828 55.0959 50.893 56.0953 50.893Z" fill="#2D4356"/>
<path d="M12.6667 25.5595H35.7055L36.4167 23.9088C36.4397 23.8545 36.4696 23.8038 36.4945 23.7505H12.6667C12.1869 23.7499 11.727 23.559 11.3878 23.2198C11.0486 22.8806 10.8577 22.4207 10.8571 21.9409V16.5124C10.8577 16.0326 11.0486 15.5727 11.3878 15.2335C11.727 14.8943 12.1869 14.7034 12.6667 14.7028H63.3333C63.8131 14.7034 64.273 14.8943 64.6122 15.2335C64.9514 15.5727 65.1422 16.0326 65.1428 16.5124V21.9409C65.1422 22.4207 64.9514 22.8806 64.6122 23.2198C64.273 23.559 63.8131 23.7499 63.3333 23.7505H50.3432C50.6987 24.3161 50.9819 24.924 51.1864 25.56H63.3333C64.2923 25.5571 65.2111 25.1749 65.8892 24.4968C66.5673 23.8187 66.9495 22.8999 66.9524 21.9409V16.5124C66.9495 15.5534 66.5673 14.6346 65.8892 13.9565C65.2111 13.2784 64.2923 12.8962 63.3333 12.8933H12.6667C11.7077 12.8962 10.7888 13.2784 10.1108 13.9565C9.43268 14.6346 9.05047 15.5534 9.04761 16.5124V21.9409C9.05047 22.8999 9.43268 23.8187 10.1108 24.4968C10.7888 25.1749 11.7077 25.5567 12.6667 25.5595Z" fill="#2D4356"/>
<path d="M52.4762 19.2263C52.4762 18.9863 52.3809 18.7562 52.2112 18.5865C52.0415 18.4169 51.8114 18.3215 51.5714 18.3215H13.5714C13.3315 18.3215 13.1013 18.4169 12.9317 18.5865C12.762 18.7562 12.6667 18.9863 12.6667 19.2263C12.6667 19.4663 12.762 19.6964 12.9317 19.8661C13.1013 20.0357 13.3315 20.1311 13.5714 20.1311H40.4293C40.4971 20.1062 40.5609 20.0759 40.6297 20.0528C41.3811 19.8037 42.1678 19.6774 42.9594 19.6787C43.8425 19.6796 44.7187 19.8326 45.5498 20.1311H51.5714C51.8114 20.1311 52.0415 20.0357 52.2112 19.8661C52.3809 19.6964 52.4762 19.4663 52.4762 19.2263ZM12.6667 40.4882H29.2763L30.0553 38.6787H12.6667C12.1869 38.6781 11.727 38.4872 11.3878 38.148C11.0486 37.8088 10.8577 37.3489 10.8571 36.8692V31.4406C10.8577 30.9608 11.0486 30.5009 11.3878 30.1617C11.727 29.8225 12.1869 29.6317 12.6667 29.6311H33.9521L34.7311 27.8215H12.6667C11.7077 27.8244 10.7888 28.2066 10.1108 28.8847C9.43268 29.5628 9.05047 30.4816 9.04761 31.4406V36.8692C9.05047 37.8281 9.43268 38.747 10.1108 39.425C10.7888 40.1031 11.7077 40.4853 12.6667 40.4882ZM66.9524 31.4406C66.9495 30.4816 66.5673 29.5628 65.8892 28.8847C65.2111 28.2066 64.2923 27.8244 63.3333 27.8215H51.5646C51.5689 28.4316 51.4953 29.0396 51.3457 29.6311H63.3333C63.8131 29.6317 64.273 29.8225 64.6122 30.1617C64.9514 30.5009 65.1422 30.9608 65.1428 31.4406V36.8692C65.1422 37.3489 64.9514 37.8088 64.6122 38.148C64.273 38.4872 63.8131 38.6781 63.3333 38.6787H47.5602L46.7807 40.4882H63.3333C64.2923 40.4853 65.2111 40.1031 65.8892 39.425C66.5673 38.747 66.9495 37.8281 66.9524 36.8692V31.4406Z" fill="#2D4356"/>
<path d="M12.6667 34.1548C12.6667 34.3947 12.762 34.6249 12.9317 34.7945C13.1013 34.9642 13.3315 35.0595 13.5714 35.0595H31.6142L32.3932 33.25H13.5714C13.3315 33.25 13.1013 33.3453 12.9317 33.515C12.762 33.6847 12.6667 33.9148 12.6667 34.1548ZM52.4762 34.1548C52.4762 33.9148 52.3809 33.6847 52.2112 33.515C52.0415 33.3453 51.8114 33.25 51.5714 33.25H49.8976L49.1186 35.0595H51.5714C51.8114 35.0595 52.0415 34.9642 52.2112 34.7945C52.3809 34.6249 52.4762 34.3947 52.4762 34.1548ZM12.6667 55.4167H24.6737L24.5435 53.6071H12.6667C12.1869 53.6065 11.727 53.4157 11.3878 53.0765C11.0486 52.7373 10.8577 52.2774 10.8571 51.7976V46.369C10.8577 45.8893 11.0486 45.4294 11.3878 45.0902C11.727 44.751 12.1869 44.5601 12.6667 44.5595H27.5228L28.3018 42.75H12.6667C11.7077 42.7529 10.7888 43.1351 10.1108 43.8132C9.43268 44.4912 9.05047 45.4101 9.04761 46.369V51.7976C9.05047 52.7566 9.43268 53.6754 10.1108 54.3535C10.7888 55.0316 11.7077 55.4138 12.6667 55.4167ZM40.3524 55.4167H63.3333C64.2923 55.4138 65.2111 55.0316 65.8892 54.3535C66.5673 53.6754 66.9495 52.7566 66.9524 51.7976V46.369C66.9495 45.4101 66.5673 44.4912 65.8892 43.8132C65.2111 43.1351 64.2923 42.7529 63.3333 42.75H45.8067L45.0277 44.5595H63.3333C63.8131 44.5601 64.273 44.751 64.6122 45.0902C64.9514 45.4294 65.1422 45.8893 65.1428 46.369V51.7976C65.1422 52.2774 64.9514 52.7373 64.6122 53.0765C64.273 53.4157 63.8131 53.6065 63.3333 53.6071H41.1318L40.3524 55.4167Z" fill="#2D4356"/>
<path d="M12.6667 49.0834C12.6667 49.3234 12.762 49.5535 12.9317 49.7232C13.1014 49.8928 13.3315 49.9882 13.5715 49.9882H25.185L25.964 48.1786H13.5715C13.3315 48.1786 13.1014 48.274 12.9317 48.4436C12.762 48.6133 12.6667 48.8434 12.6667 49.0834ZM52.4762 49.0834C52.4762 48.8434 52.3809 48.6133 52.2113 48.4436C52.0416 48.274 51.8114 48.1786 51.5715 48.1786H43.4693L42.6903 49.9882H51.5715C51.8114 49.9882 52.0416 49.8928 52.2113 49.7232C52.3809 49.5535 52.4762 49.3234 52.4762 49.0834ZM71.9286 8.14293C71.9286 7.87451 71.849 7.61212 71.6999 7.38894C71.5508 7.16576 71.3388 6.99181 71.0908 6.88909C70.8429 6.78637 70.57 6.7595 70.3067 6.81186C70.0435 6.86423 69.8016 6.99348 69.6118 7.18328C69.422 7.37308 69.2928 7.6149 69.2404 7.87816C69.1881 8.14142 69.2149 8.4143 69.3176 8.66228C69.4204 8.91027 69.5943 9.12223 69.8175 9.27135C70.0407 9.42048 70.3031 9.50007 70.5715 9.50007C70.9313 9.49971 71.2763 9.35661 71.5307 9.10218C71.7852 8.84774 71.9283 8.50275 71.9286 8.14293ZM69.8929 8.14293C69.8929 8.00872 69.9327 7.87752 70.0073 7.76593C70.0818 7.65434 70.1878 7.56737 70.3118 7.51601C70.4358 7.46465 70.5722 7.45121 70.7039 7.47739C70.8355 7.50358 70.9564 7.5682 71.0513 7.66311C71.1462 7.758 71.2108 7.87891 71.237 8.01054C71.2632 8.14217 71.2498 8.27861 71.1984 8.4026C71.147 8.5266 71.0601 8.63258 70.9485 8.70714C70.8369 8.7817 70.7057 8.8215 70.5715 8.8215C70.3916 8.82138 70.219 8.74985 70.0918 8.62262C69.9646 8.49539 69.893 8.32286 69.8929 8.14293ZM33.4762 5.42864C33.7447 5.42864 34.0071 5.34905 34.2302 5.19992C34.4534 5.0508 34.6274 4.83884 34.7301 4.59085C34.8328 4.34287 34.8597 4.06999 34.8073 3.80673C34.7549 3.54347 34.6257 3.30165 34.4359 3.11185C34.2461 2.92205 34.0043 2.7928 33.741 2.74043C33.4778 2.68807 33.2049 2.71494 32.9569 2.81766C32.7089 2.92038 32.497 3.09433 32.3478 3.31751C32.1987 3.54069 32.1191 3.80308 32.1191 4.0715C32.1195 4.43133 32.2626 4.77631 32.517 5.03075C32.7714 5.28518 33.1164 5.42828 33.4762 5.42864ZM33.4762 3.39293C33.6105 3.39293 33.7417 3.43272 33.8532 3.50729C33.9648 3.58185 34.0518 3.68783 34.1032 3.81182C34.1545 3.93581 34.168 4.07225 34.1418 4.20388C34.1156 4.33551 34.051 4.45642 33.9561 4.55132C33.8612 4.64622 33.7403 4.71085 33.6086 4.73703C33.477 4.76321 33.3406 4.74978 33.2166 4.69842C33.0926 4.64706 32.9866 4.56008 32.912 4.44849C32.8375 4.3369 32.7977 4.20571 32.7977 4.0715C32.7978 3.89157 32.8693 3.71904 32.9966 3.59181C33.1238 3.46458 33.2963 3.39305 33.4762 3.39293ZM72.381 18.5477C72.2021 18.5477 72.0271 18.6007 71.8783 18.7002C71.7296 18.7996 71.6136 18.9409 71.5451 19.1062C71.4766 19.2715 71.4587 19.4535 71.4936 19.629C71.5285 19.8045 71.6147 19.9657 71.7412 20.0922C71.8678 20.2187 72.029 20.3049 72.2045 20.3398C72.38 20.3747 72.5619 20.3568 72.7272 20.2883C72.8926 20.2199 73.0339 20.1039 73.1333 19.9551C73.2327 19.8063 73.2858 19.6314 73.2858 19.4524C73.2855 19.2126 73.1901 18.9826 73.0205 18.813C72.8509 18.6433 72.6209 18.5479 72.381 18.5477ZM72.381 19.9048C72.2915 19.9048 72.2041 19.8783 72.1297 19.8286C72.0553 19.7789 71.9973 19.7082 71.9631 19.6256C71.9288 19.5429 71.9199 19.4519 71.9373 19.3642C71.9548 19.2764 71.9979 19.1958 72.0611 19.1326C72.1244 19.0693 72.205 19.0262 72.2928 19.0088C72.3805 18.9913 72.4715 19.0003 72.5541 19.0345C72.6368 19.0687 72.7074 19.1267 72.7571 19.2011C72.8069 19.2755 72.8334 19.363 72.8334 19.4524C72.8333 19.5724 72.7856 19.6874 72.7008 19.7722C72.616 19.857 72.501 19.9047 72.381 19.9048ZM47.5001 9.95245C47.679 9.95245 47.8539 9.89939 48.0027 9.79997C48.1515 9.70055 48.2675 9.55925 48.3359 9.39393C48.4044 9.2286 48.4223 9.04669 48.3874 8.87118C48.3525 8.69567 48.2664 8.53446 48.1398 8.40793C48.0133 8.28139 47.8521 8.19522 47.6766 8.16031C47.5011 8.1254 47.3191 8.14332 47.1538 8.2118C46.9885 8.28028 46.8472 8.39624 46.7478 8.54503C46.6484 8.69382 46.5953 8.86874 46.5953 9.04769C46.5955 9.28757 46.6909 9.51756 46.8606 9.68719C47.0302 9.85681 47.2602 9.95221 47.5001 9.95245ZM47.5001 8.59531C47.5895 8.59531 47.677 8.62184 47.7514 8.67155C47.8258 8.72126 47.8838 8.79191 47.918 8.87457C47.9522 8.95723 47.9612 9.04819 47.9437 9.13594C47.9263 9.2237 47.8832 9.3043 47.8199 9.36757C47.7567 9.43084 47.6761 9.47392 47.5883 9.49138C47.5006 9.50883 47.4096 9.49987 47.3269 9.46563C47.2443 9.43139 47.1736 9.37341 47.1239 9.29902C47.0742 9.22462 47.0477 9.13716 47.0477 9.04769C47.0478 8.92775 47.0955 8.81275 47.1803 8.72794C47.2651 8.64313 47.3801 8.59543 47.5001 8.59531ZM4.07149 4.0715C4.07149 3.89255 4.01842 3.71763 3.91901 3.56884C3.81959 3.42005 3.67829 3.30409 3.51296 3.23561C3.34764 3.16713 3.16572 3.14921 2.99022 3.18412C2.81471 3.21903 2.6535 3.3052 2.52696 3.43174C2.40043 3.55827 2.31426 3.71948 2.27935 3.89499C2.24444 4.0705 2.26235 4.25241 2.33083 4.41774C2.39931 4.58306 2.51528 4.72436 2.66407 4.82378C2.81285 4.9232 2.98778 4.97626 3.16673 4.97626C3.40661 4.97602 3.6366 4.88062 3.80622 4.711C3.97585 4.54137 4.07125 4.31138 4.07149 4.0715ZM2.71434 4.0715C2.71434 3.98203 2.74088 3.89456 2.79058 3.82017C2.84029 3.74578 2.91094 3.68779 2.99361 3.65355C3.07627 3.61931 3.16723 3.61035 3.25498 3.62781C3.34273 3.64527 3.42334 3.68835 3.48661 3.75162C3.54987 3.81488 3.59296 3.89549 3.61041 3.98324C3.62787 4.071 3.61891 4.16196 3.58467 4.24462C3.55043 4.32728 3.49245 4.39793 3.41805 4.44764C3.34366 4.49735 3.2562 4.52388 3.16673 4.52388C3.04678 4.52376 2.93179 4.47606 2.84698 4.39125C2.76216 4.30644 2.71446 4.19144 2.71434 4.0715Z" fill="#2D4356"/>
<path d="M0.904762 64.6904C1.40445 64.6904 1.80952 64.2853 1.80952 63.7856C1.80952 63.2859 1.40445 62.8809 0.904762 62.8809C0.405076 62.8809 0 63.2859 0 63.7856C0 64.2853 0.405076 64.6904 0.904762 64.6904Z" fill="#2D4356"/>
<path d="M4.97614 62.8809H3.619C3.37904 62.8809 3.14891 62.9762 2.97923 63.1459C2.80956 63.3155 2.71423 63.5457 2.71423 63.7856C2.71423 64.0256 2.80956 64.2557 2.97923 64.4254C3.14891 64.5951 3.37904 64.6904 3.619 64.6904H4.97614C5.2161 64.6904 5.44623 64.5951 5.6159 64.4254C5.78558 64.2557 5.8809 64.0256 5.8809 63.7856C5.8809 63.5457 5.78558 63.3155 5.6159 63.1459C5.44623 62.9762 5.2161 62.8809 4.97614 62.8809ZM72.3809 62.8809H71.0238C70.7838 62.8809 70.5537 62.9762 70.384 63.1459C70.2143 63.3155 70.119 63.5457 70.119 63.7856C70.119 64.0256 70.2143 64.2557 70.384 64.4254C70.5537 64.5951 70.7838 64.6904 71.0238 64.6904H72.3809C72.6209 64.6904 72.851 64.5951 73.0207 64.4254C73.1903 64.2557 73.2857 64.0256 73.2857 63.7856C73.2857 63.5457 73.1903 63.3155 73.0207 63.1459C72.851 62.9762 72.6209 62.8809 72.3809 62.8809Z" fill="#2D4356"/>
<path d="M75.0952 64.6904C75.5949 64.6904 76 64.2853 76 63.7856C76 63.2859 75.5949 62.8809 75.0952 62.8809C74.5955 62.8809 74.1904 63.2859 74.1904 63.7856C74.1904 64.2853 74.5955 64.6904 75.0952 64.6904Z" fill="#2D4356"/>
<path d="M68.1833 62.881H30.4498C30.5663 62.8366 30.6756 62.7751 30.7741 62.6987C31.2605 62.2802 37.1292 57.7374 37.464 57.4782C37.4712 57.4728 49.3335 29.9811 49.3335 29.9811C50.5323 27.1854 49.13 23.7903 46.2044 22.3979L45.5408 22.0826C44.1873 21.4204 42.6299 21.3085 41.1956 21.7704C40.5017 21.9955 39.8639 22.3665 39.3253 22.8586C38.7867 23.3506 38.3596 23.9523 38.0729 24.6231C38.0729 24.6231 26.2268 52.1053 26.2381 52.1098C26.3078 52.1397 26.747 59.1837 26.7991 59.9129C26.8855 61.1163 27.2723 62.3585 28.453 62.881H7.81717C7.68845 62.8642 7.55763 62.875 7.43344 62.9128C7.30925 62.9506 7.19455 63.0144 7.097 63.1C6.99944 63.1857 6.92128 63.2911 6.86774 63.4094C6.8142 63.5276 6.7865 63.6559 6.7865 63.7858C6.7865 63.9156 6.8142 64.0439 6.86774 64.1621C6.92128 64.2804 6.99944 64.3858 7.097 64.4715C7.19455 64.5571 7.30925 64.621 7.43344 64.6587C7.55763 64.6965 7.68845 64.7073 7.81717 64.6905H68.1829C68.3116 64.7073 68.4424 64.6965 68.5666 64.6587C68.6908 64.621 68.8055 64.5571 68.9031 64.4715C69.0006 64.3858 69.0788 64.2804 69.1323 64.1621C69.1859 64.0439 69.2136 63.9156 69.2136 63.7858C69.2136 63.6559 69.1859 63.5276 69.1323 63.4094C69.0788 63.2911 69.0006 63.1857 68.9031 63.1C68.8055 63.0144 68.6908 62.9506 68.5666 62.9128C68.4424 62.875 68.312 62.8642 68.1833 62.881ZM40.0095 25.4994C40.1776 25.1108 40.4273 24.763 40.7417 24.4795C41.0561 24.196 41.4279 23.9835 41.8317 23.8564C42.7625 23.5619 43.7713 23.6402 44.6455 24.0749L45.3073 24.3902C47.1897 25.2868 48.1275 27.4017 47.3978 29.1008L36.4339 54.5414L29.013 51.011L40.0095 25.4994ZM35.478 56.506L29.6803 61.0366C29.5052 61.084 29.3188 61.0645 29.1573 60.9819C28.9944 60.8943 28.8672 60.7525 28.7977 60.5811L28.3254 53.1028L35.478 56.506Z" fill="#2D4356"/>
<path d="M61.5238 21.0358C62.5231 21.0358 63.3333 20.2256 63.3333 19.2263C63.3333 18.2269 62.5231 17.4167 61.5238 17.4167C60.5244 17.4167 59.7142 18.2269 59.7142 19.2263C59.7142 20.2256 60.5244 21.0358 61.5238 21.0358Z" fill="#41A0C8"/>
<path d="M56.0953 35.9643C57.0947 35.9643 57.9048 35.1541 57.9048 34.1547C57.9048 33.1554 57.0947 32.3452 56.0953 32.3452C55.0959 32.3452 54.2858 33.1554 54.2858 34.1547C54.2858 35.1541 55.0959 35.9643 56.0953 35.9643Z" fill="#41A0C8"/>
<path d="M61.5238 50.893C62.5231 50.893 63.3333 50.0828 63.3333 49.0834C63.3333 48.0841 62.5231 47.2739 61.5238 47.2739C60.5244 47.2739 59.7142 48.0841 59.7142 49.0834C59.7142 50.0828 60.5244 50.893 61.5238 50.893Z" fill="#41A0C8"/>
<path d="M5.2399 19.4573L5.91259 18.5729L5.4878 18.3322L5.05623 19.3229H5.04176L4.60295 18.339L4.17092 18.5869L4.83637 19.4505V19.4645L3.7959 19.3302V19.8115L4.84361 19.6771V19.6912L4.17092 20.5543L4.57445 20.8094L5.03497 19.8115H5.04854L5.47333 20.8022L5.91937 20.5475L5.2399 19.6979V19.6839L6.30842 19.8115V19.3302L5.2399 19.4713V19.4573ZM18.2223 1.70494L18.6096 1.19556L18.3653 1.05713L18.1165 1.62758H18.1083L17.8559 1.06075L17.6066 1.2037L17.9903 1.70087V1.70901L17.3909 1.63165V1.90896L17.9943 1.83161V1.83975L17.6066 2.33691L17.8392 2.48349L18.1043 1.90896H18.1124L18.3567 2.47941L18.6136 2.33284L18.2223 1.84337V1.83522L18.8376 1.90896V1.63165L18.2223 1.71308V1.70494ZM22.9913 9.25246L22.3318 10.0993L22.7276 10.3495L23.1791 9.37008H23.1926L23.6093 10.3422L24.0467 10.0925L23.3804 9.25925V9.24522L24.4285 9.37008V8.89825L23.3804 9.03713V9.0231L24.0404 8.15544L23.6238 7.9193L23.2003 8.89101H23.1859L22.7556 7.92608L22.3318 8.16946L22.9845 9.01632V9.03034L21.964 8.89825V9.37008L22.9913 9.23844V9.25246ZM59.0099 3.62303L59.9142 3.73115V3.32401L59.0099 3.44344V3.43168L59.579 2.68299L59.2198 2.47941L58.8543 3.31768H58.8425L58.4711 2.4853L58.1056 2.6952L58.6688 3.4258V3.43756L57.788 3.32401V3.73115L58.6747 3.61715V3.62937L58.1056 4.35996L58.4467 4.57575L58.8366 3.73115H58.8479L59.2076 4.56941L59.5849 4.35408L59.0099 3.63525V3.62303ZM53.4506 66.9523H49.6922C49.4644 66.97 49.2516 67.0729 49.0963 67.2407C48.9411 67.4084 48.8549 67.6285 48.8549 67.8571C48.8549 68.0856 48.9411 68.3057 49.0963 68.4734C49.2516 68.6412 49.4644 68.7442 49.6922 68.7618H53.4506C53.6784 68.7442 53.8912 68.6412 54.0465 68.4734C54.2017 68.3057 54.2879 68.0856 54.2879 67.8571C54.2879 67.6285 54.2017 67.4084 54.0465 67.2407C53.8912 67.0729 53.6784 66.97 53.4506 66.9523ZM26.3077 66.9523H22.5494C22.3215 66.97 22.1087 67.0729 21.9535 67.2407C21.7982 67.4084 21.712 67.6285 21.712 67.8571C21.712 68.0856 21.7982 68.3057 21.9535 68.4734C22.1087 68.6412 22.3215 68.7442 22.5494 68.7618H26.3077C26.5356 68.7442 26.7484 68.6412 26.9036 68.4734C27.0588 68.3057 27.1451 68.0856 27.1451 67.8571C27.1451 67.6285 27.0588 67.4084 26.9036 67.2407C26.7484 67.0729 26.5356 66.97 26.3077 66.9523ZM47.0476 66.9523H28.9524C28.7124 66.9523 28.4823 67.0476 28.3126 67.2173C28.1429 67.387 28.0476 67.6171 28.0476 67.8571C28.0476 68.097 28.1429 68.3271 28.3126 68.4968C28.4823 68.6665 28.7124 68.7618 28.9524 68.7618H36.1633V69.6666H32.5714C32.3314 69.6666 32.1013 69.7619 31.9316 69.9316C31.762 70.1012 31.6666 70.3314 31.6666 70.5713C31.6666 70.8113 31.762 71.0414 31.9316 71.2111C32.1013 71.3808 32.3314 71.4761 32.5714 71.4761H43.8809C44.1209 71.4761 44.351 71.3808 44.5207 71.2111C44.6904 71.0414 44.7857 70.8113 44.7857 70.5713C44.7857 70.3314 44.6904 70.1012 44.5207 69.9316C44.351 69.7619 44.1209 69.6666 43.8809 69.6666H39.8366V68.7618H47.0476C47.2875 68.7618 47.5177 68.6665 47.6874 68.4968C47.857 68.3271 47.9524 68.097 47.9524 67.8571C47.9524 67.6171 47.857 67.387 47.6874 67.2173C47.5177 67.0476 47.2875 66.9523 47.0476 66.9523Z" fill="#41A0C8"/>
</svg>
