<svg width="76" height="82" viewBox="0 0 76 82" fill="none" xmlns="http://www.w3.org/2000/svg">
<g filter="url(#filter0_d_728_14676)">
<path d="M41.0222 56.047L19.0125 56.1456C18.3555 56.1487 17.7042 56.0225 17.096 55.774C16.4878 55.5255 15.9344 55.1596 15.4676 54.6973C15.0007 54.2349 14.6295 53.6852 14.3752 53.0793C14.1208 52.4735 13.9883 51.8236 13.9851 51.1665L13.771 6.50168C13.7678 5.90374 13.8717 5.31007 14.0779 4.74878C13.1135 5.10487 12.2821 5.74888 11.6961 6.5935C11.1102 7.43811 10.7981 8.44248 10.8023 9.47043L11.0163 54.1353C11.0195 54.7923 11.152 55.4423 11.4063 56.0482C11.6607 56.654 12.0319 57.2038 12.4987 57.6662C12.9656 58.1286 13.5189 58.4945 14.1272 58.743C14.7354 58.9915 15.3867 59.1178 16.0438 59.1146L41.0038 58.999L41.0222 56.047Z" fill="#D4E1F4"/>
<path d="M11.215 58.8772C11.8563 59.5158 12.6171 60.0218 13.4541 60.3662C14.291 60.7106 15.1876 60.8866 16.0927 60.8842H16.1271L41.787 60.7624L41.7786 58.9811L16.1185 59.103H16.093C14.731 59.1028 13.4246 58.5633 12.4593 57.6025C11.4941 56.6417 10.9486 55.3377 10.9422 53.9758L10.728 9.46028C10.7214 8.09391 11.2579 6.78091 12.2195 5.8101C13.181 4.8393 14.4888 4.29023 15.8552 4.28367L36.4574 4.18466L36.4976 12.5491C36.5085 14.3813 37.2434 16.1348 38.5419 17.4274C39.8405 18.7199 41.5975 19.4466 43.4297 19.4489H43.4636L51.8285 19.4087L51.9436 39.1815L53.7248 39.1709L53.6061 18.7333L53.6049 18.478C53.6044 18.3609 53.5807 18.245 53.5353 18.137C53.4899 18.029 53.4237 17.931 53.3404 17.8486L38.0019 2.68811C37.8558 2.54387 37.6645 2.45443 37.4601 2.43488L37.1412 2.40519C37.1117 2.40215 37.0819 2.40081 37.0522 2.40118L15.8464 2.50301C14.0078 2.51193 12.2479 3.25081 10.954 4.55713C9.66013 5.86346 8.93809 7.63024 8.94673 9.46889L9.16078 53.9844C9.16264 54.8953 9.34516 55.7967 9.69777 56.6366C10.0504 57.4764 10.5661 58.238 11.215 58.8772ZM43.4556 17.6675H43.4305C42.0691 17.6656 40.7637 17.1256 39.7988 16.1651C38.8339 15.2047 38.2879 13.9017 38.2798 12.5404L38.2446 5.43287L50.5891 17.6335L43.4556 17.6675Z" fill="#2D4356"/>
<path d="M30.4659 35.2836C30.2297 35.2836 30.0032 35.3774 29.8362 35.5444C29.6691 35.7115 29.5753 35.938 29.5753 36.1742C29.5753 36.4104 29.6691 36.6369 29.8362 36.804C30.0032 36.971 30.2297 37.0648 30.4659 37.0648H33.4865C33.7227 37.0648 33.9492 36.971 34.1162 36.804C34.2833 36.6369 34.3771 36.4104 34.3771 36.1742C34.3771 35.938 34.2833 35.7115 34.1162 35.5444C33.9492 35.3774 33.7227 35.2836 33.4865 35.2836H30.4659ZM44.7897 28.6204C44.7897 28.3842 44.6959 28.1576 44.5288 27.9906C44.3618 27.8236 44.1353 27.7297 43.8991 27.7297H18.8226C18.5864 27.7297 18.3599 27.8236 18.1929 27.9906C18.0258 28.1576 17.932 28.3842 17.932 28.6204C17.932 28.8566 18.0258 29.0831 18.1929 29.2501C18.3599 29.4172 18.5864 29.511 18.8226 29.511H43.8991C44.1353 29.511 44.3618 29.4172 44.5288 29.2501C44.6959 29.0831 44.7897 28.8566 44.7897 28.6204ZM18.8226 35.2836C18.5864 35.2836 18.3599 35.3774 18.1929 35.5444C18.0258 35.7115 17.932 35.938 17.932 36.1742C17.932 36.4104 18.0258 36.6369 18.1929 36.804C18.3599 36.971 18.5864 37.0648 18.8226 37.0648H26.6391C26.8753 37.0648 27.1018 36.971 27.2688 36.804C27.4358 36.6369 27.5297 36.4104 27.5297 36.1742C27.5297 35.938 27.4358 35.7115 27.2688 35.5444C27.1018 35.3774 26.8753 35.2836 26.6391 35.2836H18.8226Z" fill="#2D4356"/>
<path d="M52.8033 59.9421C52.5671 59.9421 52.3406 60.036 52.1736 60.203C52.0065 60.37 51.9127 60.5966 51.9127 60.8328V67.5242C51.9127 67.7604 52.0065 67.9869 52.1736 68.1539C52.3406 68.321 52.5671 68.4148 52.8033 68.4148C53.0395 68.4148 53.2661 68.321 53.4331 68.1539C53.6001 67.9869 53.6939 67.7604 53.6939 67.5242V60.8328C53.6939 60.5966 53.6001 60.37 53.4331 60.203C53.2661 60.036 53.0395 59.9421 52.8033 59.9421ZM57.8704 59.9421C57.6342 59.9421 57.4076 60.036 57.2406 60.203C57.0736 60.37 56.9798 60.5966 56.9798 60.8328V67.5242C56.9798 67.7604 57.0736 67.9869 57.2406 68.1539C57.4076 68.321 57.6342 68.4148 57.8704 68.4148C58.1066 68.4148 58.3331 68.321 58.5001 68.1539C58.6672 67.9869 58.761 67.7604 58.761 67.5242V60.8328C58.761 60.5966 58.6672 60.37 58.5001 60.203C58.3331 60.036 58.1066 59.9421 57.8704 59.9421ZM47.736 59.9421C47.4998 59.9421 47.2732 60.036 47.1062 60.203C46.9392 60.37 46.8453 60.5966 46.8453 60.8328V67.5242C46.8453 67.7604 46.9392 67.9869 47.1062 68.1539C47.2732 68.321 47.4998 68.4148 47.736 68.4148C47.9722 68.4148 48.1987 68.321 48.3657 68.1539C48.5328 67.9869 48.6266 67.7604 48.6266 67.5242V60.8328C48.6266 60.5966 48.5328 60.37 48.3657 60.203C48.1987 60.036 47.9722 59.9421 47.736 59.9421Z" fill="#41A0C8"/>
<path d="M63.3802 43.7676H58.9471V40.0735C58.9465 39.5841 58.7519 39.115 58.4059 38.769C58.0599 38.423 57.5907 38.2283 57.1014 38.2278H48.5051C48.0158 38.2283 47.5466 38.423 47.2006 38.769C46.8546 39.115 46.66 39.5841 46.6594 40.0735V43.7676H42.2265C41.3668 43.7676 40.5343 44.0691 39.8741 44.6197C39.2138 45.1703 38.7676 45.935 38.6132 46.7807C38.4588 47.6264 38.6059 48.4995 39.029 49.2479C39.4521 49.9963 40.1243 50.5725 40.9285 50.8763V69.5429C40.9297 70.6187 41.3576 71.6501 42.1183 72.4108C42.8789 73.1715 43.9103 73.5994 44.9861 73.6006H60.6204C61.6962 73.5994 62.7276 73.1715 63.4883 72.4108C64.249 71.6501 64.6769 70.6187 64.6781 69.5429V50.8763C65.4823 50.5725 66.1545 49.9963 66.5776 49.2479C67.0007 48.4995 67.1478 47.6264 66.9934 46.7807C66.839 45.935 66.3928 45.1703 65.7326 44.6197C65.0723 44.0691 64.2399 43.7676 63.3802 43.7676ZM48.4407 40.0735C48.4407 40.065 48.4423 40.0566 48.4456 40.0488C48.4488 40.041 48.4536 40.0339 48.4595 40.0279C48.4655 40.0219 48.4726 40.0172 48.4804 40.0139C48.4882 40.0107 48.4966 40.009 48.5051 40.009H57.1014C57.1099 40.009 57.1182 40.0107 57.1261 40.0139C57.1339 40.0172 57.141 40.0219 57.147 40.0279C57.1529 40.0339 57.1577 40.041 57.1609 40.0488C57.1642 40.0566 57.1658 40.065 57.1658 40.0735V43.7676H48.4407V40.0735ZM60.6204 71.8195H44.9861C44.3825 71.8188 43.8039 71.5787 43.3771 71.1519C42.9504 70.7251 42.7104 70.1465 42.7098 69.5429V51.1138H62.8973V69.5429C62.8967 70.1465 62.6566 70.7253 62.2297 71.1521C61.8028 71.5789 61.2241 71.8189 60.6204 71.8195ZM63.3802 49.3325H42.2265C41.7247 49.3325 41.2435 49.1332 40.8887 48.7784C40.534 48.4236 40.3346 47.9425 40.3346 47.4407C40.3346 46.939 40.534 46.4578 40.8887 46.103C41.2435 45.7482 41.7247 45.5489 42.2265 45.5489H63.3802C63.8819 45.5489 64.3631 45.7482 64.7179 46.103C65.0727 46.4578 65.272 46.939 65.272 47.4407C65.272 47.9425 65.0727 48.4236 64.7179 48.7784C64.3631 49.1332 63.8819 49.3325 63.3802 49.3325Z" fill="#41A0C8"/>
</g>
<defs>
<filter id="filter0_d_728_14676" x="-4" y="0" width="84" height="84" filterUnits="userSpaceOnUse" color-interpolation-filters="sRGB">
<feFlood flood-opacity="0" result="BackgroundImageFix"/>
<feColorMatrix in="SourceAlpha" type="matrix" values="0 0 0 0 0 0 0 0 0 0 0 0 0 0 0 0 0 0 127 0" result="hardAlpha"/>
<feOffset dy="4"/>
<feGaussianBlur stdDeviation="2"/>
<feComposite in2="hardAlpha" operator="out"/>
<feColorMatrix type="matrix" values="0 0 0 0 0 0 0 0 0 0 0 0 0 0 0 0 0 0 0.25 0"/>
<feBlend mode="normal" in2="BackgroundImageFix" result="effect1_dropShadow_728_14676"/>
<feBlend mode="normal" in="SourceGraphic" in2="effect1_dropShadow_728_14676" result="shape"/>
</filter>
</defs>
</svg>
