<svg width="18" height="19" viewBox="0 0 18 19" fill="none" xmlns="http://www.w3.org/2000/svg">
<path d="M1 0.333252C1.55228 0.333252 2 0.780967 2 1.33325V16.3333H17C17.5523 16.3333 18 16.781 18 17.3333C18 17.8855 17.5523 18.3333 17 18.3333H1C0.447715 18.3333 0 17.8855 0 17.3333V1.33325C0 0.780967 0.447715 0.333252 1 0.333252Z" fill="#667085"/>
<path d="M16.832 5.88794C17.1384 5.42841 17.0142 4.80754 16.5547 4.50119C16.0952 4.19483 15.4743 4.31901 15.1679 4.77854L11.7543 9.89898L8.59998 7.53324C8.14072 7.18879 7.48638 7.30087 7.16793 7.77854L3.16793 13.7785C2.86158 14.2381 2.98576 14.8589 3.44528 15.1653C3.90481 15.4716 4.52568 15.3475 4.83203 14.8879L8.24566 9.76749L11.4 12.1332C11.8593 12.4777 12.5136 12.3656 12.832 11.8879L16.832 5.88794Z" fill="#667085"/>
</svg>
