<svg xmlns="http://www.w3.org/2000/svg" xmlns:xlink="http://www.w3.org/1999/xlink" version="1.1" x="0px" y="0px" viewBox="0 0 24 30" style="enable-background:new 0 0 24 24;" xml:space="preserve"><g><path d="M16,14c0,2.2091064-1.7908325,4-4,4c-1.8616943,0-3.4124756-1.277771-3.8585815-3h1.0429077   C9.5985107,16.161377,10.6981812,17,12,17c1.6542358,0,3-1.3458252,3-3c0-1.6542358-1.3457642-3-3-3   c-0.8820801,0-1.6652832,0.3905029-2.2113647,1.000061h1.2114258L11,13H8v-3h1v1.3807983C9.729187,10.5384521,10.796875,10,12,10   C14.2091675,10,16,11.7908325,16,14z M5,6h14v14c0,1.1045532-0.8953857,2-2,2H7c-1.1045532,0-2-0.8954468-2-2V6z M6,20   c0,0.5513916,0.4486084,1,1,1h10c0.5513916,0,1-0.4486084,1-1V7H6V20z M16,4V2H8v2H4v1h16V4H16z"/></g><text x="0" y="39" fill="#000000" font-size="5px" font-weight="bold" font-family="'Helvetica Neue', Helvetica, Arial-Unicode, Arial, Sans-serif">Created by Sophia</text><text x="0" y="44" fill="#000000" font-size="5px" font-weight="bold" font-family="'Helvetica Neue', Helvetica, Arial-Unicode, Arial, Sans-serif">from the Noun Project</text></svg>