<svg  viewBox="0 0 24 25" fill="none" xmlns="http://www.w3.org/2000/svg">
<path fill-rule="evenodd" clip-rule="evenodd" d="M5 11.5C5 8.191 7.691 5.5 11 5.5C14.309 5.5 17 8.191 17 11.5C17 14.809 14.309 17.5 11 17.5C7.691 17.5 5 14.809 5 11.5ZM20.707 19.793L17.312 16.397C18.365 15.043 19 13.346 19 11.5C19 7.089 15.411 3.5 11 3.5C6.589 3.5 3 7.089 3 11.5C3 15.911 6.589 19.5 11 19.5C12.846 19.5 14.543 18.865 15.897 17.812L19.293 21.207C19.488 21.402 19.744 21.5 20 21.5C20.256 21.5 20.512 21.402 20.707 21.207C21.098 20.816 21.098 20.184 20.707 19.793Z" fill="#667085"/>
</svg>
