<svg  viewBox="0 0 16 17" fill="none" xmlns="http://www.w3.org/2000/svg">
<g id="Xnix/Line/ 8 Copy 6">
<g id="Vector">
<path id="Vector-52" fill-rule="evenodd" clip-rule="evenodd" d="M3.02263 2C2.50576 2.0015 2.05281 2.34621 1.91363 2.844L1.07863 5.092C0.826224 6.04118 1.19423 7.04689 1.99963 7.609C2.6169 8.03703 3.40429 8.13667 4.10872 7.87589C4.81316 7.61512 5.34587 7.02679 5.53563 6.3L5.70363 5.1L6.19063 2H3.02263Z" stroke="#667085" stroke-width="1.5" stroke-linecap="round" stroke-linejoin="round"/>
<path id="Vector-53" fill-rule="evenodd" clip-rule="evenodd" d="M12.8174 2C13.3343 2.0015 13.7872 2.34621 13.9264 2.844L14.8564 4.949C14.9009 5.04492 14.9344 5.14556 14.9564 5.249C15.1317 6.15565 14.7566 7.0805 13.9994 7.609C13.3821 8.03703 12.5947 8.13667 11.8903 7.87589C11.1859 7.61512 10.6532 7.02679 10.4634 6.3L10.2994 5.092L9.65039 2H12.8174Z" stroke="#667085" stroke-width="1.5" stroke-linecap="round" stroke-linejoin="round"/>
<path id="Vector-54" d="M6.19048 1.25C5.77627 1.25 5.44048 1.58579 5.44048 2C5.44048 2.41421 5.77627 2.75 6.19048 2.75V1.25ZM9.65048 2.75C10.0647 2.75 10.4005 2.41421 10.4005 2C10.4005 1.58579 10.0647 1.25 9.65048 1.25V2.75ZM6.44937 5.10488C6.45649 4.69073 6.12652 4.34923 5.71236 4.34211C5.29821 4.33499 4.95671 4.66496 4.94959 5.07912L6.44937 5.10488ZM5.68948 5.674L4.93948 5.66111V5.674H5.68948ZM10.3035 5.674H11.0535L11.0535 5.66885L10.3035 5.674ZM11.0495 5.08685C11.0466 4.67264 10.7085 4.33917 10.2943 4.34202C9.88012 4.34486 9.54665 4.68295 9.5495 5.09715L11.0495 5.08685ZM2.74942 7.61845C2.75464 7.20426 2.42311 6.86428 2.00893 6.85906C1.59474 6.85384 1.25476 7.18537 1.24954 7.59956L2.74942 7.61845ZM1.94448 11.976L1.19454 11.9666L1.19453 11.967L1.94448 11.976ZM2.52171 13.4058L3.0552 12.8786H3.0552L2.52171 13.4058ZM3.94448 14V13.25H3.94443L3.94448 14ZM5.92048 14.75C6.33469 14.75 6.67048 14.4142 6.67048 14C6.67048 13.5858 6.33469 13.25 5.92048 13.25V14.75ZM14.7494 7.62232C14.7567 7.20817 14.4269 6.86648 14.0128 6.85912C13.5987 6.85176 13.257 7.18153 13.2496 7.59568L14.7494 7.62232ZM13.9215 12L13.1715 11.9867V12H13.9215ZM9.92148 13.25C9.50727 13.25 9.17148 13.5858 9.17148 14C9.17148 14.4142 9.50727 14.75 9.92148 14.75V13.25ZM5.17148 14C5.17148 14.4142 5.50727 14.75 5.92148 14.75C6.33569 14.75 6.67148 14.4142 6.67148 14H5.17148ZM9.17148 14C9.17148 14.4142 9.50727 14.75 9.92148 14.75C10.3357 14.75 10.6715 14.4142 10.6715 14H9.17148ZM5.92148 13.25C5.50727 13.25 5.17148 13.5858 5.17148 14C5.17148 14.4142 5.50727 14.75 5.92148 14.75V13.25ZM9.92148 14.75C10.3357 14.75 10.6715 14.4142 10.6715 14C10.6715 13.5858 10.3357 13.25 9.92148 13.25V14.75ZM6.19048 2.75H9.65048V1.25H6.19048V2.75ZM4.94959 5.07912L4.93959 5.66112L6.43937 5.68688L6.44937 5.10488L4.94959 5.07912ZM4.93948 5.674C4.93948 7.36233 6.30815 8.731 7.99648 8.731V7.231C7.13657 7.231 6.43948 6.53391 6.43948 5.674H4.93948ZM7.99648 8.731C9.68481 8.731 11.0535 7.36233 11.0535 5.674H9.55348C9.55348 6.53391 8.85639 7.231 7.99648 7.231V8.731ZM11.0535 5.66885L11.0495 5.08685L9.5495 5.09715L9.5535 5.67915L11.0535 5.66885ZM1.24954 7.59956L1.19454 11.9666L2.69442 11.9854L2.74942 7.61845L1.24954 7.59956ZM1.19453 11.967C1.18571 12.702 1.47155 13.41 1.98823 13.9329L3.0552 12.8786C2.82034 12.6409 2.69042 12.3191 2.69443 11.985L1.19453 11.967ZM1.98823 13.9329C2.50491 14.4558 3.20943 14.7501 3.94453 14.75L3.94443 13.25C3.61029 13.25 3.29005 13.1163 3.0552 12.8786L1.98823 13.9329ZM3.94448 14.75H5.92048V13.25H3.94448V14.75ZM13.2496 7.59568L13.1716 11.9867L14.6714 12.0133L14.7494 7.62232L13.2496 7.59568ZM13.1715 12C13.1715 12.6904 12.6118 13.25 11.9215 13.25V14.75C13.4403 14.75 14.6715 13.5188 14.6715 12H13.1715ZM11.9215 13.25H9.92148V14.75H11.9215V13.25ZM6.67148 14V13H5.17148V14H6.67148ZM6.67148 13C6.67148 12.3096 7.23112 11.75 7.92148 11.75V10.25C6.4027 10.25 5.17148 11.4812 5.17148 13H6.67148ZM7.92148 11.75C8.61184 11.75 9.17148 12.3096 9.17148 13H10.6715C10.6715 11.4812 9.44026 10.25 7.92148 10.25V11.75ZM9.17148 13V14H10.6715V13H9.17148ZM5.92148 14.75H9.92148V13.25H5.92148V14.75Z" fill="#667085"/>
</g>
</g>
</svg>
